HIERARCHY
ROOT Hips
{
	OFFSET 0.000000 0.000000 0.000000
	CHANNELS 6 Xposition Yposition Zposition Zrotation Yrotation Xrotation 
	JOINT LowerBack
	{
		OFFSET 0.000000 0.000000 0.000000
		CHANNELS 3 Zrotation Yrotation Xrotation
		JOINT Spine
		{
			OFFSET 0.028270 2.035590 -0.193380
			CHANNELS 3 Zrotation Yrotation Xrotation
			JOINT Spine1
			{
				OFFSET 0.056720 2.048850 -0.042750
				CHANNELS 3 Zrotation Yrotation Xrotation
				JOINT Neck
				{
					OFFSET 0.000000 0.000000 0.000000
					CHANNELS 3 Zrotation Yrotation Xrotation
					JOINT Neck1
					{
						OFFSET -0.054170 1.746240 0.172020
						CHANNELS 3 Zrotation Yrotation Xrotation
						JOINT Head
						{
							OFFSET 0.104070 1.761360 -0.123970
							CHANNELS 3 Zrotation Yrotation Xrotation
							End Site
							{
								OFFSET 0.000000 0.000000 0.000000
							}
						}
					}
				}
				JOINT LeftShoulder
				{
					OFFSET 0.000000 0.000000 0.000000
					CHANNELS 3 Zrotation Yrotation Xrotation
					JOINT LeftArm
					{
						OFFSET 3.362410 1.200890 -0.311210
						CHANNELS 3 Zrotation Yrotation Xrotation
						JOINT LeftForeArm
						{
							OFFSET 4.983000 -0.000000 -0.000000
							CHANNELS 3 Zrotation Yrotation Xrotation
							JOINT LeftHand
							{
								OFFSET 3.483560 -0.000000 -0.000000
								CHANNELS 3 Zrotation Yrotation Xrotation
								JOINT LeftFingerBase
								{
									OFFSET 0.000000 0.000000 0.000000
									CHANNELS 3 Zrotation Yrotation Xrotation
									JOINT LeftHandIndex1
									{
										OFFSET 0.715260 -0.000000 -0.000000
										CHANNELS 3 Zrotation Yrotation Xrotation
										End Site
										{
											OFFSET 0.000000 0.000000 0.000000
										}
									}
								}
								JOINT LThumb
								{
									OFFSET 0.000000 0.000000 0.000000
									CHANNELS 3 Zrotation Yrotation Xrotation
									End Site
									{
										OFFSET 0.000000 0.000000 0.000000
									}
								}
							}
						}
					}
				}
				JOINT RightShoulder
				{
					OFFSET 0.000000 0.000000 0.000000
					CHANNELS 3 Zrotation Yrotation Xrotation
					JOINT RightArm
					{
						OFFSET -3.136600 1.374050 -0.404650
						CHANNELS 3 Zrotation Yrotation Xrotation
						JOINT RightForeArm
						{
							OFFSET -5.241900 -0.000000 -0.000000
							CHANNELS 3 Zrotation Yrotation Xrotation
							JOINT RightHand
							{
								OFFSET -3.444170 -0.000000 -0.000000
								CHANNELS 3 Zrotation Yrotation Xrotation
								JOINT RightFingerBase
								{
									OFFSET 0.000000 0.000000 0.000000
									CHANNELS 3 Zrotation Yrotation Xrotation
									JOINT RightHandIndex1
									{
										OFFSET -0.622530 -0.000000 -0.000000
										CHANNELS 3 Zrotation Yrotation Xrotation
										End Site
										{
											OFFSET 0.000000 0.000000 0.000000
										}
									}
								}
								JOINT RThumb
								{
									OFFSET 0.000000 0.000000 0.000000
									CHANNELS 3 Zrotation Yrotation Xrotation
									End Site
									{
										OFFSET 0.000000 0.000000 0.000000
									}
								}
							}
						}
					}
				}
			}
		}
	}
}
}
MOTION
Frames: 10
Frame Time: 0.008333
2.802377 16.880643 0.237350 -171.276346 -35.468195 -156.298265 4.364685 -6.276687 -1.792765 0.975069 -6.580168 -2.936024 -4.854519 -6.622735 0.543798 17.725444 -14.412664 -6.183687 -0.247534 -0.038488 0.355526 0.000000 0.000000 0.000000 32.057636 -7.714493 4.328537 2.964349 -10.445890 -52.655900 -0.826761 -0.579500 -0.035947 5.943285 -3.880391 -0.241224 -0.297516 0.531260 -0.000000 0.000000 0.000000 0.000000 0.000000 0.000000 0.000000 9.955555 -14.563788 -3.328565 54.294463 54.363414 12.038500 -178.318304 60.498861 179.768382 -19.265510 14.134248 -2.625483 0.326909 -0.969130 -0.000000 0.000000 0.000000 0.000000 0.000000 0.000000 0.000000 
2.800275 16.876418 0.215545 -171.265693 -35.289743 -156.248339 4.378545 -6.216289 -1.907474 0.971976 -6.526563 -2.938759 -4.883784 -6.562536 0.581426 17.617196 -14.410829 -6.209882 -0.246973 -0.037970 0.347875 0.000000 0.000000 0.000000 32.038385 -7.471996 4.338100 2.667801 -11.509864 -53.391494 -0.733378 -0.010566 -0.036497 6.297363 -4.859736 -0.313251 -0.302657 0.557220 -0.000000 0.000000 0.000000 0.000000 0.000000 0.000000 0.000000 9.829554 -14.537264 -3.343092 54.281798 54.190510 11.966046 -178.324339 60.433012 179.769191 -19.161328 14.223400 -2.627084 0.324313 -0.971571 -0.000000 0.000000 0.000000 0.000000 0.000000 0.000000 0.000000 
2.798658 16.874373 0.194958 -171.266143 -35.156809 -156.226387 4.407103 -6.154968 -2.005013 0.971273 -6.472428 -2.944698 -4.910384 -6.502719 0.596283 17.483079 -14.385211 -6.207137 -0.250667 -0.038336 0.348473 0.000000 0.000000 0.000000 31.929907 -7.308329 4.342107 2.440270 -12.438636 -54.080472 -0.648468 0.590662 -0.037475 6.714942 -5.822388 -0.394181 -0.309766 0.581350 -0.000000 0.000000 0.000000 0.000000 0.000000 0.000000 0.000000 9.687670 -14.488262 -3.355170 54.270285 54.028426 11.882702 -178.328434 60.417846 179.769782 -19.083381 14.299197 -2.629486 0.321786 -0.973176 -0.000000 0.000000 0.000000 0.000000 0.000000 0.000000 0.000000 
2.797319 16.874440 0.175556 -171.280360 -35.070605 -156.228722 4.450259 -6.096519 -2.087019 0.973400 -6.421480 -2.952407 -4.933930 -6.446798 0.595449 17.324556 -14.336783 -6.182393 -0.258308 -0.039419 0.355301 0.000000 0.000000 0.000000 31.743603 -7.190937 4.343391 2.282586 -13.275874 -54.842315 -0.562857 1.248082 -0.038718 7.171462 -6.783480 -0.484813 -0.317197 0.604018 -0.000000 0.000000 0.000000 0.000000 0.000000 0.000000 0.000000 9.534305 -14.420928 -3.368312 54.264031 53.890702 11.796008 -178.329047 60.452007 179.770190 -19.029597 14.355361 -2.631589 0.319213 -0.973708 0.000000 0.000000 0.000000 0.000000 0.000000 0.000000 0.000000 
2.795935 16.876553 0.157241 -171.308592 -35.028897 -156.253929 4.510616 -6.043311 -2.157942 0.979710 -6.376313 -2.961704 -4.953254 -6.397285 0.583202 17.138605 -14.265643 -6.140212 -0.269305 -0.041083 0.367061 0.000000 0.000000 0.000000 31.459798 -7.090525 4.345935 2.251435 -14.069349 -55.683145 -0.477058 2.028383 -0.040030 7.660726 -7.767138 -0.587545 -0.324744 0.625217 -0.000000 0.000000 0.000000 0.000000 0.000000 0.000000 0.000000 9.364811 -14.336992 -3.386161 54.278134 53.782870 11.722174 -178.324905 60.533303 179.770439 -18.996432 14.390272 -2.632594 0.316447 -0.973077 0.000000 0.000000 0.000000 0.000000 0.000000 0.000000 0.000000 
2.794459 16.880566 0.139709 -171.355594 -35.030614 -156.296338 4.583995 -5.996752 -2.222461 0.989721 -6.338211 -2.971749 -4.968875 -6.355247 0.565878 16.929409 -14.175109 -6.087410 -0.283365 -0.043169 0.381841 0.000000 0.000000 0.000000 31.080817 -6.976496 4.352662 2.389481 -14.876315 -56.626353 -0.390478 2.994101 -0.041084 8.161825 -8.836631 -0.706578 -0.331615 0.646299 -0.000000 0.000000 0.000000 0.000000 0.000000 0.000000 0.000000 9.184791 -14.241412 -3.410675 54.311062 53.708521 11.661953 -178.315364 60.650230 179.770560 -18.980979 14.401011 -2.631701 0.313504 -0.971294 -0.000000 0.000000 0.000000 0.000000 0.000000 0.000000 0.000000 
2.792669 16.886246 0.122670 -171.422504 -35.071916 -156.352602 4.667584 -5.959237 -2.290049 1.004993 -6.309328 -2.981544 -4.971704 -6.322713 0.555750 16.684411 -14.068893 -6.030447 -0.305079 -0.045860 0.397797 0.000000 0.000000 0.000000 30.640906 -6.839148 4.366765 2.389278 -15.552277 -57.490224 -0.299619 3.460792 -0.043582 8.655735 -9.592796 -0.809412 -0.336553 0.662315 -0.000000 0.000000 0.000000 0.000000 0.000000 0.000000 0.000000 8.985388 -14.130094 -3.442189 54.361127 53.675054 11.617095 -178.302056 60.793287 179.770542 -18.980333 14.387335 -2.628407 0.310690 -0.968818 -0.000000 0.000000 0.000000 0.000000 0.000000 0.000000 0.000000 
2.790733 16.893374 0.105768 -171.515233 -35.146743 -156.420397 4.758929 -5.935188 -2.372842 1.029289 -6.293427 -2.990415 -4.941743 -6.303610 0.567527 16.373684 -13.951329 -5.973382 -0.344656 -0.049772 0.413768 0.000000 0.000000 0.000000 30.218597 -6.692981 4.383205 1.530610 -15.752078 -57.895516 -0.193091 1.928676 -0.051467 9.117949 -9.151978 -0.814543 -0.337239 0.662574 -0.000000 0.000000 0.000000 0.000000 0.000000 0.000000 0.000000 8.743904 -13.989364 -3.477591 54.424500 53.694377 11.589772 -178.289907 60.956519 179.770341 -18.991809 14.350179 -2.622899 0.308677 -0.966546 -0.000000 0.000000 0.000000 0.000000 0.000000 0.000000 0.000000 
2.788559 16.901721 0.088770 -171.631972 -35.254783 -156.492980 4.850325 -5.916891 -2.465264 1.056620 -6.283153 -3.000454 -4.903212 -6.290453 0.583354 16.035628 -13.827927 -5.914499 -0.392382 -0.054274 0.430349 0.000000 0.000000 0.000000 29.727696 -6.500244 4.394215 0.611869 -15.935744 -58.067878 -0.091187 0.014326 -0.060334 9.590463 -8.577597 -0.805168 -0.337282 0.662498 -0.000000 0.000000 0.000000 0.000000 0.000000 0.000000 0.000000 8.489491 -13.840139 -3.515435 54.494211 53.737980 11.569237 -178.276999 61.114030 179.770030 -19.014142 14.294446 -2.615690 0.307230 -0.964166 -0.000000 0.000000 0.000000 0.000000 0.000000 0.000000 0.000000 
2.786515 16.910967 0.071367 -171.778697 -35.393270 -156.566537 4.938486 -5.901194 -2.570070 1.085691 -6.275379 -3.012778 -4.858812 -6.280189 0.600206 15.671374 -13.702476 -5.851521 -0.449093 -0.059466 0.448265 0.000000 0.000000 0.000000 29.169194 -6.277330 4.394953 -0.370992 -16.083666 -57.908185 0.001623 -2.340335 -0.070572 10.126617 -7.870296 -0.783784 -0.338457 0.662486 -0.000000 0.000000 0.000000 0.000000 0.000000 0.000000 0.000000 8.221546 -13.683832 -3.551630 54.563651 53.792048 11.547672 -178.265481 61.250286 179.769611 -19.046126 14.223397 -2.607280 0.306649 -0.962035 -0.000000 0.000000 0.000000 0.000000 0.000000 0.000000 0.000000 
